<svg width="28" height="21" viewBox="0 0 28 21" fill="none" xmlns="http://www.w3.org/2000/svg">
<path d="M16.7444 20.1736C16.3856 19.8148 16.2134 19.3813 16.2278 18.8731C16.2421 18.3649 16.4293 17.9314 16.7892 17.5727L21.8565 12.5054H1.85647C1.34825 12.5054 0.921943 12.3332 0.577549 11.9888C0.233154 11.6444 0.0615545 11.2187 0.0627503 10.7117C0.0627503 10.2034 0.234948 9.77714 0.579342 9.43274C0.923737 9.08835 1.34945 8.91675 1.85647 8.91795H21.8565L16.7444 3.80584C16.3856 3.44709 16.2062 3.02079 16.2062 2.52692C16.2062 2.03304 16.3856 1.60733 16.7444 1.24979C17.1031 0.891042 17.5294 0.71167 18.0233 0.71167C18.5172 0.71167 18.9429 0.891042 19.3004 1.24979L27.5067 9.45606C27.6861 9.63544 27.8134 9.82976 27.8888 10.039C27.9641 10.2483 28.0012 10.4725 28 10.7117C28 10.9508 27.9623 11.175 27.887 11.3843C27.8116 11.5936 27.6849 11.7879 27.5067 11.9673L19.2556 20.2184C18.9267 20.5472 18.516 20.7117 18.0233 20.7117C17.5306 20.7117 17.1043 20.5323 16.7444 20.1736Z" fill="#222222"/>
</svg>
