<svg width="26" height="26" viewBox="0 0 26 26" fill="none" xmlns="http://www.w3.org/2000/svg">
<path d="M11.3044 15.4617L8.61694 12.7742C8.38778 12.545 8.09611 12.4304 7.74194 12.4304C7.38778 12.4304 7.09611 12.545 6.86694 12.7742C6.63778 13.0033 6.52319 13.295 6.52319 13.6492C6.52319 14.0033 6.63778 14.295 6.86694 14.5242L10.4294 18.0867C10.6794 18.3367 10.9711 18.4617 11.3044 18.4617C11.6378 18.4617 11.9294 18.3367 12.1794 18.0867L19.2419 11.0242C19.4711 10.795 19.5857 10.5033 19.5857 10.1492C19.5857 9.795 19.4711 9.50334 19.2419 9.27417C19.0128 9.045 18.7211 8.93042 18.3669 8.93042C18.0128 8.93042 17.7211 9.045 17.4919 9.27417L11.3044 15.4617ZM13.0544 25.7117C11.3253 25.7117 9.70028 25.3833 8.17944 24.7267C6.65861 24.07 5.33569 23.1796 4.21069 22.0554C3.08569 20.9304 2.19528 19.6075 1.53944 18.0867C0.88361 16.5658 0.555277 14.9408 0.554443 13.2117C0.554443 11.4825 0.882777 9.8575 1.53944 8.33667C2.19611 6.81584 3.08653 5.49292 4.21069 4.36792C5.33569 3.24292 6.65861 2.3525 8.17944 1.69667C9.70028 1.04084 11.3253 0.712503 13.0544 0.71167C14.7836 0.71167 16.4086 1.04 17.9294 1.69667C19.4503 2.35334 20.7732 3.24375 21.8982 4.36792C23.0232 5.49292 23.914 6.81584 24.5707 8.33667C25.2274 9.8575 25.5553 11.4825 25.5544 13.2117C25.5544 14.9408 25.2261 16.5658 24.5694 18.0867C23.9128 19.6075 23.0224 20.9304 21.8982 22.0554C20.7732 23.1804 19.4503 24.0713 17.9294 24.7279C16.4086 25.3846 14.7836 25.7125 13.0544 25.7117ZM13.0544 23.2117C15.8461 23.2117 18.2107 22.2429 20.1482 20.3054C22.0857 18.3679 23.0544 16.0033 23.0544 13.2117C23.0544 10.42 22.0857 8.05542 20.1482 6.11792C18.2107 4.18042 15.8461 3.21167 13.0544 3.21167C10.2628 3.21167 7.89819 4.18042 5.96069 6.11792C4.02319 8.05542 3.05444 10.42 3.05444 13.2117C3.05444 16.0033 4.02319 18.3679 5.96069 20.3054C7.89819 22.2429 10.2628 23.2117 13.0544 23.2117Z"/>
</svg>
