<svg width="20" height="26" viewBox="0 0 20 26" fill="none" xmlns="http://www.w3.org/2000/svg">
<path d="M10.0545 5.88413C9.11673 5.88413 8.20003 6.1622 7.42031 6.6832C6.64058 7.20419 6.03287 7.9447 5.674 8.81108C5.31513 9.67746 5.22124 10.6308 5.40419 11.5505C5.58713 12.4703 6.03871 13.3151 6.70181 13.9782C7.36491 14.6413 8.20975 15.0929 9.12949 15.2759C10.0492 15.4588 11.0026 15.3649 11.869 15.006C12.7353 14.6472 13.4758 14.0395 13.9968 13.2597C14.5178 12.48 14.7959 11.5633 14.7959 10.6255C14.7945 9.36848 14.2945 8.16331 13.4056 7.27443C12.5167 6.38555 11.3116 5.88555 10.0545 5.88413ZM10.0545 12.7807C9.62824 12.7807 9.21156 12.6543 8.85714 12.4175C8.50272 12.1807 8.22648 11.8441 8.06336 11.4503C7.90024 11.0565 7.85756 10.6232 7.94072 10.2051C8.02388 9.78702 8.22914 9.403 8.53055 9.10159C8.83196 8.80018 9.21597 8.59492 9.63404 8.51176C10.0521 8.42861 10.4854 8.47129 10.8793 8.63441C11.2731 8.79753 11.6097 9.07376 11.8465 9.42818C12.0833 9.7826 12.2097 10.1993 12.2097 10.6255C12.2097 11.1971 11.9826 11.7453 11.5784 12.1495C11.1743 12.5537 10.6261 12.7807 10.0545 12.7807ZM10.0545 0.71167C7.42605 0.714522 4.90608 1.75993 3.04748 3.61853C1.18889 5.47712 0.143477 7.9971 0.140625 10.6255C0.140625 18.9618 8.93811 25.2162 9.31311 25.478C9.53043 25.6301 9.78926 25.7117 10.0545 25.7117C10.3197 25.7117 10.5786 25.6301 10.7959 25.478C12.4621 24.25 13.9866 22.8405 15.3412 21.2754C18.3681 17.7991 19.9684 14.1137 19.9684 10.6255C19.9655 7.9971 18.9201 5.47712 17.0615 3.61853C15.2029 1.75993 12.6829 0.714522 10.0545 0.71167ZM13.4274 19.5383C12.3999 20.7185 11.2713 21.8067 10.0545 22.7905C8.83766 21.8067 7.70907 20.7185 6.68163 19.5383C4.88204 17.4543 2.72685 14.215 2.72685 10.6255C2.72685 8.68213 3.49887 6.81832 4.87307 5.44412C6.24727 4.06992 8.11109 3.2979 10.0545 3.2979C11.9979 3.2979 13.8617 4.06992 15.2359 5.44412C16.6101 6.81832 17.3821 8.68213 17.3821 10.6255C17.3821 14.215 15.227 17.4543 13.4274 19.5383Z"/>
</svg>
